<svg width="303" height="183" viewBox="0 0 303 183" fill="none" xmlns="http://www.w3.org/2000/svg">
<path d="M9.14062 134V31.625H45C57.4219 31.625 66.8438 34.0156 73.2656 38.7969C79.6875 43.5312 82.8984 50.4922 82.8984 59.6797C82.8984 64.6953 81.6094 69.125 79.0312 72.9688C76.4531 76.7656 72.8672 79.5547 68.2734 81.3359C73.5234 82.6484 77.6484 85.2969 80.6484 89.2812C83.6953 93.2656 85.2188 98.1406 85.2188 103.906C85.2188 113.75 82.0781 121.203 75.7969 126.266C69.5156 131.328 60.5625 133.906 48.9375 134H9.14062ZM30.2344 89.4219V117.055H48.3047C53.2734 117.055 57.1406 115.883 59.9062 113.539C62.7188 111.148 64.125 107.867 64.125 103.695C64.125 94.3203 59.2734 89.5625 49.5703 89.4219H30.2344ZM30.2344 74.5156H45.8438C56.4844 74.3281 61.8047 70.0859 61.8047 61.7891C61.8047 57.1484 60.4453 53.8203 57.7266 51.8047C55.0547 49.7422 50.8125 48.7109 45 48.7109H30.2344V74.5156ZM121.219 134H100.828V26H121.219V134ZM183.586 126.266C178.57 132.359 171.633 135.406 162.773 135.406C154.617 135.406 148.383 133.062 144.07 128.375C139.805 123.688 137.625 116.82 137.531 107.773V57.9219H157.852V107.07C157.852 114.992 161.461 118.953 168.68 118.953C175.57 118.953 180.305 116.562 182.883 111.781V57.9219H203.273V134H184.148L183.586 126.266ZM253.617 135.406C242.461 135.406 233.367 131.984 226.336 125.141C219.352 118.297 215.859 109.18 215.859 97.7891V95.8203C215.859 88.1797 217.336 81.3594 220.289 75.3594C223.242 69.3125 227.414 64.6719 232.805 61.4375C238.242 58.1562 244.43 56.5156 251.367 56.5156C261.773 56.5156 269.953 59.7969 275.906 66.3594C281.906 72.9219 284.906 82.2266 284.906 94.2734V102.57H236.461C237.117 107.539 239.086 111.523 242.367 114.523C245.695 117.523 249.891 119.023 254.953 119.023C262.781 119.023 268.898 116.188 273.305 110.516L283.289 121.695C280.242 126.008 276.117 129.383 270.914 131.82C265.711 134.211 259.945 135.406 253.617 135.406ZM251.297 72.9688C247.266 72.9688 243.984 74.3281 241.453 77.0469C238.969 79.7656 237.375 83.6562 236.672 88.7188H264.938V87.1016C264.844 82.6016 263.625 79.1328 261.281 76.6953C258.938 74.2109 255.609 72.9688 251.297 72.9688Z" fill="#91DCE7"/>
<path d="M21.1406 181V78.625H57C69.4219 78.625 78.8438 81.0156 85.2656 85.7969C91.6875 90.5312 94.8984 97.4922 94.8984 106.68C94.8984 111.695 93.6094 116.125 91.0312 119.969C88.4531 123.766 84.8672 126.555 80.2734 128.336C85.5234 129.648 89.6484 132.297 92.6484 136.281C95.6953 140.266 97.2188 145.141 97.2188 150.906C97.2188 160.75 94.0781 168.203 87.7969 173.266C81.5156 178.328 72.5625 180.906 60.9375 181H21.1406ZM42.2344 136.422V164.055H60.3047C65.2734 164.055 69.1406 162.883 71.9062 160.539C74.7188 158.148 76.125 154.867 76.125 150.695C76.125 141.32 71.2734 136.562 61.5703 136.422H42.2344ZM42.2344 121.516H57.8438C68.4844 121.328 73.8047 117.086 73.8047 108.789C73.8047 104.148 72.4453 100.82 69.7266 98.8047C67.0547 96.7422 62.8125 95.7109 57 95.7109H42.2344V121.516ZM133.219 181H112.828V73H133.219V181ZM195.586 173.266C190.57 179.359 183.633 182.406 174.773 182.406C166.617 182.406 160.383 180.062 156.07 175.375C151.805 170.688 149.625 163.82 149.531 154.773V104.922H169.852V154.07C169.852 161.992 173.461 165.953 180.68 165.953C187.57 165.953 192.305 163.562 194.883 158.781V104.922H215.273V181H196.148L195.586 173.266ZM265.617 182.406C254.461 182.406 245.367 178.984 238.336 172.141C231.352 165.297 227.859 156.18 227.859 144.789V142.82C227.859 135.18 229.336 128.359 232.289 122.359C235.242 116.312 239.414 111.672 244.805 108.438C250.242 105.156 256.43 103.516 263.367 103.516C273.773 103.516 281.953 106.797 287.906 113.359C293.906 119.922 296.906 129.227 296.906 141.273V149.57H248.461C249.117 154.539 251.086 158.523 254.367 161.523C257.695 164.523 261.891 166.023 266.953 166.023C274.781 166.023 280.898 163.188 285.305 157.516L295.289 168.695C292.242 173.008 288.117 176.383 282.914 178.82C277.711 181.211 271.945 182.406 265.617 182.406ZM263.297 119.969C259.266 119.969 255.984 121.328 253.453 124.047C250.969 126.766 249.375 130.656 248.672 135.719H276.938V134.102C276.844 129.602 275.625 126.133 273.281 123.695C270.938 121.211 267.609 119.969 263.297 119.969Z" fill="#7BB9F3"/>
</svg>
